<svg height="120px" width="120px" id="Layer_1" data-name="Layer 1" xmlns="http://www.w3.org/2000/svg" viewBox="0 0 200 150"><defs><style>.cls-1{fill:#ffa264;}.cls-2{fill:#f0673f;}.cls-3{fill:#ffc92a;}.cls-4{fill:#9d9ea0;}.cls-5{fill:#4e4e50;}</style></defs><path class="cls-1" d="M74.2,70.78a1.53,1.53,0,0,1,0,.3q0-.47-.09-.93l.09.22v0l0,.29Z"/><path class="cls-1" d="M132.93,81l0,.08-20,56.6h-.47L100,102.38h0l17.5-49.55,1.14-3.2a1.29,1.29,0,0,1,0-.19,19.37,19.37,0,0,0,.54-4.53,19.59,19.59,0,0,0-.21-2.79c0-.15,0-.3-.07-.45l0-.18h0c0-.08,0-.17,0-.26l.23.66,1.13,3.19,1,2.9Z"/><path class="cls-2" d="M119.24,44.92a19.37,19.37,0,0,1-.54,4.53l0,.17-1.14,3.2L100,102.37v0l-1.15-3.21L82.5,52.82l-1.14-3.2a1.7,1.7,0,0,1,0-.22h0a.53.53,0,0,1,0-.12c-.08-.34-.16-.69-.21-1,0,0,0,0,0-.06-.06-.35-.11-.7-.15-1.06s-.07-.73-.09-1.11,0-.73,0-1.11,0-.75,0-1.12v-.07l0-.44c0-.15,0-.28.05-.42s0-.12,0-.18a.69.69,0,0,1,0-.13l0-.16L81,42c0-.13,0-.25.07-.38a0,0,0,0,0,0,0v0a.28.28,0,0,1,0-.09.19.19,0,0,1,0-.08l0-.17c.05-.27.1-.54.17-.79l0-.22A19.16,19.16,0,0,1,91.12,28c.32-.17.64-.32,1-.47s.65-.29,1-.42l0,0,.63-.23a.58.58,0,0,0,.17-.06l.13,0,.53-.16.35-.11c.22-.05.44-.12.67-.16l.11,0,.1,0,.57-.12.52-.1.56-.07c.22,0,.45-.07.68-.09l.83-.06h2.09c.4,0,.8.06,1.19.11l1,.13.32.05.11,0a19.2,19.2,0,0,1,15,14.13,1.74,1.74,0,0,0,0,.22c.07.25.12.52.17.79a2.34,2.34,0,0,1,0,.26c0,.06,0,.13,0,.18s.05.31.07.46A19.47,19.47,0,0,1,119.24,44.92Z"/><polygon class="cls-3" points="192.38 25.76 152.88 137.69 112.47 137.69 112.48 137.65 112.49 137.65 132.46 81.06 132.49 80.97 151.97 25.76 192.38 25.76"/><path class="cls-4" d="M100,102.39h0l-3.28,9.28-9.18,26h-.47l-20-56.57L79.8,45.19l0-.06,1.24-3.5,0-.05c0,.13,0,.25-.07.38l-.05.42,0,.16a.69.69,0,0,0,0,.13c0,.06,0,.11,0,.18s0,.27-.05.42l0,.44v.07c0,.37,0,.74,0,1.12s0,.75,0,1.11,0,.75.09,1.11.09.71.15,1.06c0,0,0,0,0,.06,0,.35.13.7.21,1a.53.53,0,0,0,0,.12h0a1.7,1.7,0,0,0,0,.22l1.14,3.2L98.87,99.18Z"/><polygon class="cls-5" points="87.53 137.69 47.12 137.69 7.62 25.76 48.03 25.76 67.45 80.79 67.51 80.97 67.55 81.08 87.51 137.65 87.52 137.65 87.53 137.69"/><path d="M79.71,20.83v-9H82a3.16,3.16,0,0,1,2.61,1.09,5.23,5.23,0,0,1,.87,3.29,5.47,5.47,0,0,1-1,3.36A3,3,0,0,1,82,20.83Zm1.42-7.39v5.8h.74a1.78,1.78,0,0,0,1.54-.8A3.78,3.78,0,0,0,84,16.25a3.43,3.43,0,0,0-.54-2.06,1.81,1.81,0,0,0-1.55-.75Z"/><path d="M94.92,11.84l-1.74,9H91.6L90.5,15c0-.15,0-.31-.07-.48s0-.34,0-.53h0c0,.21,0,.39,0,.56s0,.31-.07.45l-1.13,5.82H87.48l-1.73-9h1.56l1,6.05q0,.2.06.45t0,.57h0a4.38,4.38,0,0,1,0-.5q0-.26.09-.54l1.2-6h1.52l1.09,6.1c0,.11,0,.25.06.41s0,.34,0,.55h0c0-.16,0-.32,0-.49a4.26,4.26,0,0,1,.06-.5l.93-6.07Z"/><path d="M103.23,20.83h-1.41V15.42c0-.29,0-.6,0-.92s0-.66,0-1h0c0,.27-.07.5-.1.69s-.07.35-.1.48l-1.58,6.16H98.91l-1.59-6.1c0-.09,0-.23-.09-.44l-.12-.79h0c0,.42,0,.82.05,1.2s0,.75,0,1.09v5H95.84v-9h2.08l1.38,5.39c0,.2.1.4.14.6s.07.39.1.58h0c0-.23.09-.44.13-.64s.09-.38.13-.55l1.38-5.38h2Z"/><path d="M106.25,17.86v3h-1.42v-9h2.26a2.26,2.26,0,0,1,1.84.73,3.36,3.36,0,0,1,.61,2.2,3.41,3.41,0,0,1-.7,2.24,2.31,2.31,0,0,1-1.88.85Zm0-4.5v3h.59a1.06,1.06,0,0,0,.9-.38,1.81,1.81,0,0,0,.3-1.14,1.8,1.8,0,0,0-.29-1.11,1.09,1.09,0,0,0-.91-.37Z"/><path d="M115.52,20.36a3.55,3.55,0,0,1-1,.48,3.51,3.51,0,0,1-1.05.15,2.83,2.83,0,0,1-2.4-1.18,5.56,5.56,0,0,1-.87-3.36,5.75,5.75,0,0,1,1-3.41,2.93,2.93,0,0,1,2.51-1.35,3.93,3.93,0,0,1,1,.11,3.8,3.8,0,0,1,.86.35L115,13.73a3,3,0,0,0-.65-.27,2.88,2.88,0,0,0-.68-.08,1.73,1.73,0,0,0-1.41.79,3.49,3.49,0,0,0-.6,2.15,3.87,3.87,0,0,0,.52,2.17,1.64,1.64,0,0,0,1.43.78,2.32,2.32,0,0,0,.62-.11,3,3,0,0,0,.73-.37Z"/><path d="M116.05,20.23l.59-1.53a3.44,3.44,0,0,0,.86.55,2,2,0,0,0,.78.15,1,1,0,0,0,.78-.29,1.09,1.09,0,0,0,.26-.79,1.13,1.13,0,0,0-.21-.73,1.62,1.62,0,0,0-.76-.44,3.23,3.23,0,0,1-1.57-1,2.76,2.76,0,0,1-.49-1.75,3,3,0,0,1,.63-1.93,2.15,2.15,0,0,1,1.78-.79,3,3,0,0,1,.94.15,3.24,3.24,0,0,1,.89.45L120,13.83a3.2,3.2,0,0,0-.71-.42,1.87,1.87,0,0,0-.63-.13,1,1,0,0,0-.7.25,1,1,0,0,0-.25.71.85.85,0,0,0,.23.65,2.19,2.19,0,0,0,.82.42,2.84,2.84,0,0,1,1.52,1,3.07,3.07,0,0,1,.47,1.84,3.12,3.12,0,0,1-.64,2.05,2.27,2.27,0,0,1-1.87.79,3.67,3.67,0,0,1-2.18-.76Z"/></svg>