<svg version="1.1" id="Layer_1" xmlns="http://www.w3.org/2000/svg" xmlns:xlink="http://www.w3.org/1999/xlink" x="0px" y="0px"
	 width="100%" viewBox="0 0 4167 3126" enable-background="new 0 0 4167 3126" xml:space="preserve">
<path fill="#FFFFFF" opacity="1.000000" stroke="none" 
	d="
M2554.000000,3128.000000 
	C1702.666626,3128.000000 852.333313,3128.000000 2.000000,3128.000000 
	C2.000000,2086.000000 2.000000,1044.000000 2.000000,2.000000 
	C1391.333374,2.000000 2780.666748,2.000000 4170.000000,2.000000 
	C4170.000000,1044.000000 4170.000000,2086.000000 4170.000000,3128.000000 
	C3631.666748,3128.000000 3093.333252,3128.000000 2554.000000,3128.000000 
M1740.950439,230.168060 
	C1740.758789,230.807175 1740.567139,231.446289 1740.234375,233.689590 
	C1752.422363,297.028870 1764.610352,360.368164 1776.784180,423.633484 
	C1789.479126,423.633484 1801.593140,423.633484 1813.748657,423.633484 
	C1822.007568,381.343353 1830.133179,339.736053 1839.241333,298.444794 
	C1840.123169,298.976990 1841.005005,299.509155 1842.287964,301.607452 
	C1850.048584,342.415863 1857.809204,383.224274 1865.494995,423.638672 
	C1878.144653,423.638672 1889.621338,423.638672 1900.909180,423.638672 
	C1909.235962,381.074158 1917.501221,339.244476 1925.575439,297.377991 
	C1929.766235,275.648315 1933.619507,253.853500 1937.999023,230.929703 
	C1937.299072,230.797699 1936.598999,230.665695 1934.055664,230.328186 
	C1924.809326,230.328186 1915.562988,230.328186 1906.148560,230.328186 
	C1903.937378,244.336395 1901.813477,257.685181 1899.725708,271.039612 
	C1895.092407,300.673584 1890.477417,330.310394 1884.619507,360.036011 
	C1883.794678,360.006134 1882.969849,359.976227 1881.723267,358.368713 
	C1874.081909,315.776825 1866.440552,273.184937 1858.842285,230.833405 
	C1846.798950,230.833405 1835.912720,230.833405 1824.930420,230.833405 
	C1815.672119,277.052734 1806.510742,322.788544 1797.349243,368.524353 
	C1796.949219,368.485870 1796.549316,368.447418 1796.149292,368.408966 
	C1788.870850,322.435577 1781.592407,276.462219 1774.321167,230.534012 
	C1762.726562,230.534012 1752.416260,230.534012 1740.950439,230.168060 
M1986.845825,284.390594 
	C1986.845825,284.390594 1987.698608,284.447021 1987.676270,286.069244 
	C1988.162598,288.675171 1988.502075,291.318787 1989.158691,293.881073 
	C1994.184204,313.487549 1999.215210,333.092926 2004.353516,352.670013 
	C2010.568848,376.350067 2016.891113,400.002075 2023.209229,423.825989 
	C2032.157959,423.825989 2040.689575,423.825989 2049.406494,423.825989 
	C2058.356934,389.019836 2067.268555,354.673096 2075.990479,320.278198 
	C2079.003418,308.395660 2081.544922,296.393555 2085.154785,284.391144 
	C2085.154785,284.391144 2085.925781,284.022461 2085.994385,285.894409 
	C2086.104492,290.222839 2086.307129,294.551178 2086.310059,298.879669 
	C2086.334961,337.536041 2086.315430,376.192444 2086.343018,414.848816 
	C2086.344971,417.757019 2086.604736,420.665039 2086.757812,423.845459 
	C2097.166992,423.845459 2106.989746,423.845459 2117.053711,423.845459 
	C2117.053711,359.246460 2117.053711,295.148773 2117.053711,230.808472 
	C2101.899658,230.808472 2087.371338,230.808472 2072.595703,230.808472 
	C2061.028076,275.954224 2049.562012,320.704224 2037.788696,366.653137 
	C2025.965088,320.270874 2014.585449,275.629822 2003.185059,230.907272 
	C1987.890747,230.907272 1973.068970,230.907272 1958.269409,230.907272 
	C1958.269409,295.628845 1958.269409,359.759247 1958.269409,423.596954 
	C1967.672974,423.596954 1976.448242,423.596954 1985.675171,423.596954 
	C1985.675171,418.227234 1985.662720,413.601166 1985.677246,408.975159 
	C1985.807251,367.323700 1985.942017,325.672211 1986.845825,284.390594 
M2088.306641,2186.986572 
	C2105.831055,2236.497559 2123.380615,2285.999268 2140.874023,2335.521240 
	C2167.890381,2412.001709 2194.890137,2488.488037 2221.853271,2564.987549 
	C2239.424561,2614.840576 2256.886719,2664.732422 2274.455078,2714.586426 
	C2297.767090,2780.739502 2321.096191,2846.886475 2344.524658,2912.998291 
	C2347.843018,2922.362793 2351.760254,2931.514893 2356.775879,2941.857178 
	C2359.764893,2942.000977 2362.753662,2942.270752 2365.742676,2942.270996 
	C2649.387207,2942.290039 2933.031738,2942.288574 3216.676270,2942.288574 
	C3219.940674,2942.288574 3223.205322,2942.288818 3226.526123,2942.288818 
	C3228.008301,2938.370605 3229.229736,2935.312500 3230.328613,2932.210693 
	C3241.880371,2899.608398 3253.425781,2867.003906 3264.946777,2834.391113 
	C3287.656738,2770.106689 3310.370361,2705.823975 3333.043213,2641.526611 
	C3350.186279,2592.910400 3367.229248,2544.258545 3384.387695,2495.647705 
	C3407.190918,2431.044922 3430.085205,2366.474365 3452.898682,2301.875244 
	C3470.175293,2252.953613 3487.359863,2203.999512 3504.634766,2155.077148 
	C3527.445801,2090.476562 3550.322510,2025.899048 3573.138428,1961.300171 
	C3590.416748,1912.379761 3607.639404,1863.439697 3624.894531,1814.511108 
	C3648.343506,1748.018555 3671.828613,1681.538574 3695.242432,1615.033691 
	C3709.710449,1573.939331 3723.993652,1532.779785 3738.506836,1491.701294 
	C3759.555664,1432.122559 3780.791016,1372.609741 3801.843506,1313.032227 
	C3816.912598,1270.386230 3831.756348,1227.660522 3846.799561,1185.005371 
	C3867.926270,1125.101440 3889.171143,1065.239136 3910.314697,1005.341125 
	C3925.148926,963.317078 3939.850586,921.246094 3954.697754,879.226685 
	C3976.082275,818.707458 3997.551270,758.218262 4018.971680,697.711792 
	C4034.287842,654.448303 4049.606445,611.185730 4064.873291,567.904846 
	C4069.151611,555.775696 4073.250488,543.583313 4077.673340,530.716797 
	C3786.731201,530.716797 3496.850098,530.716797 3206.639648,530.716797 
	C3205.719971,532.795837 3204.648926,534.843933 3203.884277,537.000732 
	C3190.439697,574.928040 3177.005859,612.859192 3163.624023,650.808594 
	C3148.803467,692.837402 3134.083740,734.901733 3119.236572,776.921082 
	C3098.185303,836.499146 3077.005859,896.032043 3055.977783,955.618286 
	C3037.052246,1009.247314 3018.321533,1062.945190 2999.386475,1116.570923 
	C2978.348389,1176.153442 2957.122070,1235.669556 2936.082031,1295.251221 
	C2921.131836,1337.587158 2906.435791,1380.012573 2891.480713,1422.346680 
	C2870.432861,1481.925781 2849.260254,1541.460938 2828.122070,1601.008057 
	C2816.001953,1635.151245 2803.844727,1669.281128 2790.726318,1702.526489 
	C2775.618896,1659.913208 2760.475098,1617.312622 2745.413818,1574.682983 
	C2728.025391,1525.468872 2710.731934,1476.221191 2693.356689,1427.002441 
	C2670.338379,1361.798340 2647.251221,1296.618286 2624.250244,1231.407959 
	C2609.874023,1190.649536 2595.683838,1149.825562 2581.262939,1109.082886 
	C2560.408447,1050.163086 2539.473145,991.271851 2518.461182,932.408020 
	C2511.214111,912.106323 2503.635742,891.922974 2496.041016,870.127808 
	C2494.514648,863.332520 2493.095703,856.511169 2491.445557,849.746033 
	C2474.662842,780.940613 2443.420654,719.755798 2395.772461,667.051208 
	C2352.864014,619.589111 2301.727539,584.140503 2242.583496,559.906250 
	C2200.344727,542.598938 2156.201904,533.559570 2110.958740,530.614685 
	C2081.142090,528.673889 2051.207764,530.276733 2021.549927,535.199524 
	C1974.207642,543.057922 1929.558716,558.483032 1887.450806,581.483215 
	C1844.999268,604.671082 1807.476074,634.101685 1775.429443,670.288025 
	C1749.041016,700.085327 1727.319702,733.091797 1710.568115,769.258301 
	C1694.846436,803.201721 1683.362427,838.474365 1676.800903,876.616333 
	C1671.188477,892.265930 1665.519531,907.895508 1659.973999,923.568665 
	C1639.450562,981.573303 1618.955444,1039.587891 1598.473267,1097.606934 
	C1575.002686,1164.090698 1551.567505,1230.587036 1528.097900,1297.071045 
	C1508.170532,1353.521118 1488.177856,1409.948242 1468.282959,1466.409790 
	C1443.414795,1536.986328 1418.676270,1607.608643 1393.717896,1678.153198 
	C1390.424194,1687.462646 1386.163086,1696.429932 1381.964478,1704.138184 
	C1243.855835,1313.008667 1105.747314,921.879028 967.703918,530.933838 
	C676.934387,530.933838 386.862091,530.933838 96.756493,530.933838 
	C96.756493,532.189636 96.580269,532.895081 96.781609,533.467773 
	C111.003967,573.920532 125.227753,614.372864 139.513199,654.803406 
	C160.775101,714.978699 182.121063,775.124329 203.358063,835.308411 
	C220.281464,883.268127 237.043839,931.284607 253.971588,979.242798 
	C273.111755,1033.468994 292.396698,1087.644043 311.544830,1141.867432 
	C330.250427,1194.837769 348.825806,1247.854126 367.526245,1300.826172 
	C388.771698,1361.007446 410.131256,1421.148193 431.368103,1481.332397 
	C448.291351,1529.292114 465.064423,1577.304932 481.977539,1625.268188 
	C501.211578,1679.813110 520.548645,1734.321655 539.800781,1788.860229 
	C556.619873,1836.505493 573.355347,1884.180298 590.178711,1931.824097 
	C609.325378,1986.046997 628.566956,2040.236450 647.695007,2094.466064 
	C662.842834,2137.411133 677.835571,2180.411133 692.979858,2223.357422 
	C713.982849,2282.917969 735.091125,2342.441162 756.102722,2401.998779 
	C775.013184,2455.600830 793.797119,2509.247803 812.740112,2562.838379 
	C837.665039,2633.351807 862.754028,2703.807373 887.653198,2774.329834 
	C906.687378,2828.241211 925.527832,2882.221191 944.501099,2936.154053 
	C945.239319,2938.252441 946.461304,2940.180664 947.528870,2942.331299 
	C951.321960,2942.331299 954.637939,2942.331299 957.953857,2942.331299 
	C1240.918823,2942.331299 1523.883667,2942.331787 1806.848633,2942.326660 
	C1809.846558,2942.326660 1812.939819,2942.678711 1815.801147,2942.033691 
	C1817.168457,2941.725342 1818.095093,2939.462646 1820.608765,2937.449951 
	C1825.039429,2925.276855 1829.565674,2913.137695 1833.883423,2900.924561 
	C1850.843628,2852.949951 1867.708374,2804.941650 1884.665161,2756.965820 
	C1906.497437,2695.195557 1928.425537,2633.459717 1950.231934,2571.680420 
	C1965.065430,2529.656006 1979.681763,2487.554688 1994.535645,2445.537354 
	C2021.471680,2369.343750 2048.476562,2293.174561 2075.551270,2217.030029 
	C2079.321289,2206.426514 2083.650879,2196.021973 2088.306641,2186.986572 
M1609.657471,334.999847 
	C1609.657471,364.537933 1609.657471,394.076050 1609.657471,424.209473 
	C1630.514648,424.209473 1650.420654,424.240173 1670.326172,424.161285 
	C1672.284302,424.153534 1674.252686,423.530792 1676.194580,423.096558 
	C1696.461426,418.564880 1710.069092,405.542572 1720.083496,388.204834 
	C1729.243286,372.347015 1732.979004,354.961761 1733.961304,336.814636 
	C1735.063843,316.445923 1734.104980,296.292725 1727.743164,276.761200 
	C1720.452759,254.379105 1706.236572,238.334259 1682.788086,233.016190 
	C1671.938843,230.555603 1660.413696,230.767883 1649.174683,230.414307 
	C1636.291138,230.009003 1623.385254,230.320328 1609.657471,230.320328 
	C1609.657471,265.199463 1609.657471,299.099640 1609.657471,334.999847 
M2181.671631,404.916382 
	C2181.671631,390.359070 2181.671631,375.801727 2181.671631,360.341248 
	C2187.475098,360.341248 2192.384766,360.343750 2197.294434,360.340820 
	C2222.279785,360.325928 2240.232910,347.633636 2248.129395,323.623444 
	C2254.850098,303.188629 2254.216309,282.500244 2248.368164,261.945129 
	C2242.717773,242.083771 2225.291992,230.635773 2205.012207,230.363770 
	C2189.374268,230.154007 2173.730957,230.287811 2158.090820,230.357208 
	C2155.584961,230.368332 2153.081299,230.842773 2150.766846,231.083282 
	C2150.766846,295.761688 2150.766846,359.560516 2150.766846,423.883148 
	C2161.250244,424.545776 2171.272949,424.607361 2181.671631,423.936554 
	C2181.671631,417.473236 2181.671631,412.181183 2181.671631,404.916382 
M2452.556641,350.230774 
	C2461.763916,357.587036 2465.438477,368.939453 2461.298828,379.439606 
	C2458.496094,386.547974 2453.738525,391.698425 2445.217529,392.394135 
	C2435.705078,393.170807 2426.746826,391.949585 2418.569336,386.884888 
	C2414.104980,384.119690 2409.853027,381.011536 2404.956543,377.685486 
	C2400.596924,389.185364 2396.413818,400.219604 2392.068359,411.682434 
	C2411.663330,426.023224 2432.640625,431.865204 2456.134277,426.436981 
	C2468.291504,423.628113 2477.642822,416.727448 2484.304688,405.986481 
	C2495.516357,387.910309 2495.981934,368.258423 2492.885498,348.219055 
	C2489.960938,329.290924 2479.011963,316.311584 2461.443848,308.894348 
	C2457.170898,307.090332 2452.683838,305.776123 2448.471924,303.850555 
	C2443.976318,301.795410 2439.352783,299.746857 2435.390625,296.863220 
	C2429.258789,292.400360 2426.908203,284.282990 2428.966553,277.657104 
	C2432.845947,265.169922 2441.963135,259.513428 2454.996582,263.052124 
	C2462.802002,265.171387 2470.037598,269.389862 2478.339111,273.018921 
	C2482.015869,262.528076 2485.913818,251.405731 2489.847900,240.179733 
	C2479.549316,232.187714 2468.513428,228.406601 2456.344482,227.196243 
	C2436.757324,225.248016 2420.293213,230.576736 2408.487305,247.077850 
	C2399.138916,260.144073 2397.345215,275.023712 2397.517090,290.669434 
	C2397.768799,313.595490 2407.499023,330.162231 2428.320068,339.887146 
	C2435.814697,343.387573 2443.573242,346.323822 2452.556641,350.230774 
M2333.480713,265.826019 
	C2346.771973,261.698761 2358.814941,266.244476 2371.299072,271.948090 
	C2374.845459,259.827423 2378.909912,248.462021 2380.349854,236.857651 
	C2365.548340,227.169220 2341.849365,224.088699 2324.653564,228.609482 
	C2304.751709,233.841721 2291.345947,247.108353 2281.558594,264.544281 
	C2273.146484,279.530609 2268.989502,295.653717 2267.307861,312.791077 
	C2264.872070,337.614258 2266.497314,361.814453 2275.463135,385.174774 
	C2292.137451,428.620605 2344.992188,442.976440 2382.104248,413.842529 
	C2378.427734,402.831818 2374.688721,391.634277 2370.697021,379.680115 
	C2367.763184,381.358002 2365.652344,383.032013 2363.250000,383.850616 
	C2356.395996,386.185974 2349.512207,389.576080 2342.480469,390.018585 
	C2325.549805,391.083954 2314.080078,381.898529 2307.478271,366.975250 
	C2297.243164,343.838989 2296.756592,319.854584 2304.614014,296.085968 
	C2309.111328,282.482574 2317.872314,271.619049 2333.480713,265.826019 
z"/>
<path fill="#4E4E50" opacity="1.000000" stroke="none" 
	d="
M1819.221436,2938.084961 
	C1818.095093,2939.462646 1817.168457,2941.725342 1815.801147,2942.033691 
	C1812.939819,2942.678711 1809.846558,2942.326660 1806.848633,2942.326660 
	C1523.883667,2942.331787 1240.918823,2942.331299 957.953857,2942.331299 
	C954.637939,2942.331299 951.321960,2942.331299 947.528870,2942.331299 
	C946.461304,2940.180664 945.239319,2938.252441 944.501099,2936.154053 
	C925.527832,2882.221191 906.687378,2828.241211 887.653198,2774.329834 
	C862.754028,2703.807373 837.665039,2633.351807 812.740112,2562.838379 
	C793.797119,2509.247803 775.013184,2455.600830 756.102722,2401.998779 
	C735.091125,2342.441162 713.982849,2282.917969 692.979858,2223.357422 
	C677.835571,2180.411133 662.842834,2137.411133 647.695007,2094.466064 
	C628.566956,2040.236450 609.325378,1986.046997 590.178711,1931.824097 
	C573.355347,1884.180298 556.619873,1836.505493 539.800781,1788.860229 
	C520.548645,1734.321655 501.211578,1679.813110 481.977539,1625.268188 
	C465.064423,1577.304932 448.291351,1529.292114 431.368103,1481.332397 
	C410.131256,1421.148193 388.771698,1361.007446 367.526245,1300.826172 
	C348.825806,1247.854126 330.250427,1194.837769 311.544830,1141.867432 
	C292.396698,1087.644043 273.111755,1033.468994 253.971588,979.242798 
	C237.043839,931.284607 220.281464,883.268127 203.358063,835.308411 
	C182.121063,775.124329 160.775101,714.978699 139.513199,654.803406 
	C125.227753,614.372864 111.003967,573.920532 96.781609,533.467773 
	C96.580269,532.895081 96.756493,532.189636 96.756493,530.933838 
	C386.862091,530.933838 676.934387,530.933838 967.703918,530.933838 
	C1105.747314,921.879028 1243.855835,1313.008667 1382.192749,1705.604492 
	C1391.416870,1732.464966 1400.428955,1757.853271 1409.404907,1783.254395 
	C1428.801025,1838.143311 1448.217773,1893.025146 1467.554321,1947.935059 
	C1494.073486,2023.241211 1520.477417,2098.588135 1547.020264,2173.885986 
	C1577.544067,2260.477539 1608.192749,2347.024902 1638.733643,2433.610596 
	C1653.340210,2475.020996 1667.753906,2516.499756 1682.376587,2557.904541 
	C1711.732178,2641.026123 1741.194458,2724.109619 1770.565430,2807.225586 
	C1785.085571,2848.315430 1799.479248,2889.449463 1814.009888,2930.535400 
	C1815.034668,2933.433105 1814.784180,2937.447510 1819.221436,2938.084961 
z"/>
<path fill="#FFC92A" opacity="1.000000" stroke="none" 
	d="
M2791.704346,1703.417114 
	C2803.844727,1669.281128 2816.001953,1635.151245 2828.122070,1601.008057 
	C2849.260254,1541.460938 2870.432861,1481.925781 2891.480713,1422.346680 
	C2906.435791,1380.012573 2921.131836,1337.587158 2936.082031,1295.251221 
	C2957.122070,1235.669556 2978.348389,1176.153442 2999.386475,1116.570923 
	C3018.321533,1062.945190 3037.052246,1009.247314 3055.977783,955.618286 
	C3077.005859,896.032043 3098.185303,836.499146 3119.236572,776.921082 
	C3134.083740,734.901733 3148.803467,692.837402 3163.624023,650.808594 
	C3177.005859,612.859192 3190.439697,574.928040 3203.884277,537.000732 
	C3204.648926,534.843933 3205.719971,532.795837 3206.639648,530.716797 
	C3496.850098,530.716797 3786.731201,530.716797 4077.673340,530.716797 
	C4073.250488,543.583313 4069.151611,555.775696 4064.873291,567.904846 
	C4049.606445,611.185730 4034.287842,654.448303 4018.971680,697.711792 
	C3997.551270,758.218262 3976.082275,818.707458 3954.697754,879.226685 
	C3939.850586,921.246094 3925.148926,963.317078 3910.314697,1005.341125 
	C3889.171143,1065.239136 3867.926270,1125.101440 3846.799561,1185.005371 
	C3831.756348,1227.660522 3816.912598,1270.386230 3801.843506,1313.032227 
	C3780.791016,1372.609741 3759.555664,1432.122559 3738.506836,1491.701294 
	C3723.993652,1532.779785 3709.710449,1573.939331 3695.242432,1615.033691 
	C3671.828613,1681.538574 3648.343506,1748.018555 3624.894531,1814.511108 
	C3607.639404,1863.439697 3590.416748,1912.379761 3573.138428,1961.300171 
	C3550.322510,2025.899048 3527.445801,2090.476562 3504.634766,2155.077148 
	C3487.359863,2203.999512 3470.175293,2252.953613 3452.898682,2301.875244 
	C3430.085205,2366.474365 3407.190918,2431.044922 3384.387695,2495.647705 
	C3367.229248,2544.258545 3350.186279,2592.910400 3333.043213,2641.526611 
	C3310.370361,2705.823975 3287.656738,2770.106689 3264.946777,2834.391113 
	C3253.425781,2867.003906 3241.880371,2899.608398 3230.328613,2932.210693 
	C3229.229736,2935.312500 3228.008301,2938.370605 3226.526123,2942.288818 
	C3223.205322,2942.288818 3219.940674,2942.288574 3216.676270,2942.288574 
	C2933.031738,2942.288574 2649.387207,2942.290039 2365.742676,2942.270996 
	C2362.753662,2942.270752 2359.764893,2942.000977 2356.479492,2940.598389 
	C2375.451904,2885.202637 2394.801025,2831.093994 2413.958984,2776.917725 
	C2424.924805,2745.908691 2435.452393,2714.744873 2446.403564,2683.730469 
	C2464.542725,2632.358643 2482.920166,2581.071045 2501.086426,2529.708740 
	C2510.945557,2501.833496 2520.475098,2473.842285 2530.330078,2445.965820 
	C2548.489014,2394.600586 2566.832275,2343.301025 2584.990967,2291.935791 
	C2594.956787,2263.745850 2604.598633,2235.440918 2614.570312,2207.253174 
	C2632.297119,2157.144775 2650.229980,2107.109375 2667.947021,2056.997559 
	C2678.245361,2027.867676 2688.195801,1998.614624 2698.469971,1969.475952 
	C2717.028320,1916.842163 2735.748291,1864.265381 2754.328125,1811.639160 
	C2764.392822,1783.131348 2774.337891,1754.581177 2784.270020,1726.026855 
	C2786.875977,1718.534668 2789.232910,1710.956055 2791.704346,1703.417114 
z"/>
<path fill="#F0673F" opacity="1.000000" stroke="none" 
	d="
M1677.848145,875.571594 
	C1683.362427,838.474365 1694.846436,803.201721 1710.568115,769.258301 
	C1727.319702,733.091797 1749.041016,700.085327 1775.429443,670.288025 
	C1807.476074,634.101685 1844.999268,604.671082 1887.450806,581.483215 
	C1929.558716,558.483032 1974.207642,543.057922 2021.549927,535.199524 
	C2051.207764,530.276733 2081.142090,528.673889 2110.958740,530.614685 
	C2156.201904,533.559570 2200.344727,542.598938 2242.583496,559.906250 
	C2301.727539,584.140503 2352.864014,619.589111 2395.772461,667.051208 
	C2443.420654,719.755798 2474.662842,780.940613 2491.445557,849.746033 
	C2493.095703,856.511169 2494.514648,863.332520 2496.016113,871.800598 
	C2496.666748,879.389343 2497.449219,885.295532 2497.994385,891.223450 
	C2498.874756,900.792969 2499.860352,910.364075 2500.327393,919.957642 
	C2501.020752,934.203918 2502.249023,948.519836 2501.507568,962.715088 
	C2500.646484,979.200989 2498.279785,995.644409 2495.849365,1011.999634 
	C2494.149658,1023.438354 2491.997803,1034.923218 2488.689453,1045.980713 
	C2484.600830,1059.644165 2479.007568,1072.852051 2474.233398,1086.316650 
	C2458.800049,1129.843628 2443.436279,1173.395142 2428.061523,1216.942749 
	C2412.022705,1262.371216 2396.020264,1307.812134 2379.968506,1353.236084 
	C2364.691895,1396.466309 2349.353516,1439.674683 2334.077881,1482.905273 
	C2318.027100,1528.329346 2302.029053,1573.771973 2285.988525,1619.199707 
	C2270.058350,1664.314209 2254.083008,1709.412842 2238.166016,1754.531982 
	C2222.028076,1800.277344 2205.974365,1846.052734 2189.813477,1891.790161 
	C2174.649170,1934.707642 2159.330566,1977.570679 2144.194336,2020.498047 
	C2129.499023,2062.175293 2114.975098,2103.913330 2100.320068,2145.604736 
	C2096.245605,2157.195801 2091.971680,2168.716797 2087.281982,2179.759766 
	C2085.312988,2175.535156 2083.737061,2171.860840 2082.406494,2168.099854 
	C2056.111084,2093.779297 2029.853760,2019.444946 2003.568970,1945.120605 
	C1983.827271,1889.297974 1964.031860,1833.494507 1944.307617,1777.665894 
	C1916.826538,1699.882202 1889.404663,1622.077881 1861.928101,1544.292725 
	C1842.096069,1488.149658 1822.184937,1432.034668 1802.365601,1375.887085 
	C1769.148560,1281.784302 1735.916626,1187.686768 1702.835205,1093.536133 
	C1696.006958,1074.102905 1688.852905,1054.698853 1683.631104,1034.813354 
	C1679.523193,1019.169739 1677.658691,1002.866760 1675.686157,986.747986 
	C1672.166992,957.989014 1672.372681,929.149475 1675.507446,900.333801 
	C1676.404175,892.092407 1677.074219,883.826355 1677.848145,875.571594 
z"/>
<path fill="#9D9EA0" opacity="1.000000" stroke="none" 
	d="
M1677.324463,876.093994 
	C1677.074219,883.826355 1676.404175,892.092407 1675.507446,900.333801 
	C1672.372681,929.149475 1672.166992,957.989014 1675.686157,986.747986 
	C1677.658691,1002.866760 1679.523193,1019.169739 1683.631104,1034.813354 
	C1688.852905,1054.698853 1696.006958,1074.102905 1702.835205,1093.536133 
	C1735.916626,1187.686768 1769.148560,1281.784302 1802.365601,1375.887085 
	C1822.184937,1432.034668 1842.096069,1488.149658 1861.928101,1544.292725 
	C1889.404663,1622.077881 1916.826538,1699.882202 1944.307617,1777.665894 
	C1964.031860,1833.494507 1983.827271,1889.297974 2003.568970,1945.120605 
	C2029.853760,2019.444946 2056.111084,2093.779297 2082.406494,2168.099854 
	C2083.737061,2171.860840 2085.312988,2175.535156 2087.285156,2180.418945 
	C2087.771240,2182.900635 2087.746582,2184.213135 2087.721680,2185.525391 
	C2083.650879,2196.021973 2079.321289,2206.426514 2075.551270,2217.030029 
	C2048.476562,2293.174561 2021.471680,2369.343750 1994.535645,2445.537354 
	C1979.681763,2487.554688 1965.065430,2529.656006 1950.231934,2571.680420 
	C1928.425537,2633.459717 1906.497437,2695.195557 1884.665161,2756.965820 
	C1867.708374,2804.941650 1850.843628,2852.949951 1833.883423,2900.924561 
	C1829.565674,2913.137695 1825.039429,2925.276855 1819.915039,2937.767578 
	C1814.784180,2937.447510 1815.034668,2933.433105 1814.009888,2930.535400 
	C1799.479248,2889.449463 1785.085571,2848.315430 1770.565430,2807.225586 
	C1741.194458,2724.109619 1711.732178,2641.026123 1682.376587,2557.904541 
	C1667.753906,2516.499756 1653.340210,2475.020996 1638.733643,2433.610596 
	C1608.192749,2347.024902 1577.544067,2260.477539 1547.020264,2173.885986 
	C1520.477417,2098.588135 1494.073486,2023.241211 1467.554321,1947.935059 
	C1448.217773,1893.025146 1428.801025,1838.143311 1409.404907,1783.254395 
	C1400.428955,1757.853271 1391.416870,1732.464966 1382.385498,1706.313232 
	C1386.163086,1696.429932 1390.424194,1687.462646 1393.717896,1678.153198 
	C1418.676270,1607.608643 1443.414795,1536.986328 1468.282959,1466.409790 
	C1488.177856,1409.948242 1508.170532,1353.521118 1528.097900,1297.071045 
	C1551.567505,1230.587036 1575.002686,1164.090698 1598.473267,1097.606934 
	C1618.955444,1039.587891 1639.450562,981.573303 1659.973999,923.568665 
	C1665.519531,907.895508 1671.188477,892.265930 1677.324463,876.093994 
z"/>
<path fill="#FFA264" opacity="1.000000" stroke="none" 
	d="
M2088.014160,2186.255859 
	C2087.746582,2184.213135 2087.771240,2182.900635 2087.792969,2180.929199 
	C2091.971680,2168.716797 2096.245605,2157.195801 2100.320068,2145.604736 
	C2114.975098,2103.913330 2129.499023,2062.175293 2144.194336,2020.498047 
	C2159.330566,1977.570679 2174.649170,1934.707642 2189.813477,1891.790161 
	C2205.974365,1846.052734 2222.028076,1800.277344 2238.166016,1754.531982 
	C2254.083008,1709.412842 2270.058350,1664.314209 2285.988525,1619.199707 
	C2302.029053,1573.771973 2318.027100,1528.329346 2334.077881,1482.905273 
	C2349.353516,1439.674683 2364.691895,1396.466309 2379.968506,1353.236084 
	C2396.020264,1307.812134 2412.022705,1262.371216 2428.061523,1216.942749 
	C2443.436279,1173.395142 2458.800049,1129.843628 2474.233398,1086.316650 
	C2479.007568,1072.852051 2484.600830,1059.644165 2488.689453,1045.980713 
	C2491.997803,1034.923218 2494.149658,1023.438354 2495.849365,1011.999634 
	C2498.279785,995.644409 2500.646484,979.200989 2501.507568,962.715088 
	C2502.249023,948.519836 2501.020752,934.203918 2500.327393,919.957642 
	C2499.860352,910.364075 2498.874756,900.792969 2497.994385,891.223450 
	C2497.449219,885.295532 2496.666748,879.389343 2496.099854,872.579468 
	C2503.635742,891.922974 2511.214111,912.106323 2518.461182,932.408020 
	C2539.473145,991.271851 2560.408447,1050.163086 2581.262939,1109.082886 
	C2595.683838,1149.825562 2609.874023,1190.649536 2624.250244,1231.407959 
	C2647.251221,1296.618286 2670.338379,1361.798340 2693.356689,1427.002441 
	C2710.731934,1476.221191 2728.025391,1525.468872 2745.413818,1574.682983 
	C2760.475098,1617.312622 2775.618896,1659.913208 2791.215332,1702.971802 
	C2789.232910,1710.956055 2786.875977,1718.534668 2784.270020,1726.026855 
	C2774.337891,1754.581177 2764.392822,1783.131348 2754.328125,1811.639160 
	C2735.748291,1864.265381 2717.028320,1916.842163 2698.469971,1969.475952 
	C2688.195801,1998.614624 2678.245361,2027.867676 2667.947021,2056.997559 
	C2650.229980,2107.109375 2632.297119,2157.144775 2614.570312,2207.253174 
	C2604.598633,2235.440918 2594.956787,2263.745850 2584.990967,2291.935791 
	C2566.832275,2343.301025 2548.489014,2394.600586 2530.330078,2445.965820 
	C2520.475098,2473.842285 2510.945557,2501.833496 2501.086426,2529.708740 
	C2482.920166,2581.071045 2464.542725,2632.358643 2446.403564,2683.730469 
	C2435.452393,2714.744873 2424.924805,2745.908691 2413.958984,2776.917725 
	C2394.801025,2831.093994 2375.451904,2885.202637 2355.791504,2940.052490 
	C2351.760254,2931.514893 2347.843018,2922.362793 2344.524658,2912.998291 
	C2321.096191,2846.886475 2297.767090,2780.739502 2274.455078,2714.586426 
	C2256.886719,2664.732422 2239.424561,2614.840576 2221.853271,2564.987549 
	C2194.890137,2488.488037 2167.890381,2412.001709 2140.874023,2335.521240 
	C2123.380615,2285.999268 2105.831055,2236.497559 2088.014160,2186.255859 
z"/>
<path fill="#020202" opacity="1.000000" stroke="none" 
	d="
M2084.301758,284.446045 
	C2081.544922,296.393555 2079.003418,308.395660 2075.990479,320.278198 
	C2067.268555,354.673096 2058.356934,389.019836 2049.406494,423.825989 
	C2040.689575,423.825989 2032.157959,423.825989 2023.209229,423.825989 
	C2016.891113,400.002075 2010.568848,376.350067 2004.353516,352.670013 
	C1999.215210,333.092926 1994.184204,313.487549 1989.158691,293.881073 
	C1988.502075,291.318787 1988.162598,288.675171 1987.831787,284.508026 
	C1987.629272,280.927399 1987.271362,278.907959 1986.651489,275.411072 
	C1983.566650,279.414551 1983.067749,281.733368 1986.075439,284.020752 
	C1985.942017,325.672211 1985.807251,367.323700 1985.677246,408.975159 
	C1985.662720,413.601166 1985.675171,418.227234 1985.675171,423.596954 
	C1976.448242,423.596954 1967.672974,423.596954 1958.269409,423.596954 
	C1958.269409,359.759247 1958.269409,295.628845 1958.269409,230.907272 
	C1973.068970,230.907272 1987.890747,230.907272 2003.185059,230.907272 
	C2014.585449,275.629822 2025.965088,320.270874 2037.788696,366.653137 
	C2049.562012,320.704224 2061.028076,275.954224 2072.595703,230.808472 
	C2087.371338,230.808472 2101.899658,230.808472 2117.053711,230.808472 
	C2117.053711,295.148773 2117.053711,359.246460 2117.053711,423.845459 
	C2106.989746,423.845459 2097.166992,423.845459 2086.757812,423.845459 
	C2086.604736,420.665039 2086.344971,417.757019 2086.343018,414.848816 
	C2086.315430,376.192444 2086.334961,337.536041 2086.310059,298.879669 
	C2086.307129,294.551178 2086.104492,290.222839 2086.568604,284.640106 
	C2088.151611,281.088837 2088.315918,279.188629 2084.574219,278.410461 
	C2084.469238,280.737518 2084.385498,282.591766 2084.301758,284.446045 
z"/>
<path fill="#040404" opacity="1.000000" stroke="none" 
	d="
M1838.258789,298.128784 
	C1830.133179,339.736053 1822.007568,381.343353 1813.748657,423.633484 
	C1801.593140,423.633484 1789.479126,423.633484 1776.784180,423.633484 
	C1764.610352,360.368164 1752.422363,297.028870 1740.713379,232.788345 
	C1741.728149,231.592316 1742.032715,231.141296 1742.105957,230.534012 
	C1752.416260,230.534012 1762.726562,230.534012 1774.321167,230.534012 
	C1781.592407,276.462219 1788.870850,322.435577 1796.149292,368.408966 
	C1796.549316,368.447418 1796.949219,368.485870 1797.349243,368.524353 
	C1806.510742,322.788544 1815.672119,277.052734 1824.930420,230.833405 
	C1835.912720,230.833405 1846.798950,230.833405 1858.842285,230.833405 
	C1866.440552,273.184937 1874.081909,315.776825 1881.832031,359.886719 
	C1882.009277,362.875031 1882.077759,364.345337 1882.064575,366.612366 
	C1882.306519,369.992554 1882.630249,372.576080 1882.954102,375.159607 
	C1883.706665,375.093903 1884.459229,375.028168 1885.211670,374.962433 
	C1885.428101,372.573486 1885.644409,370.184540 1885.909424,367.010681 
	C1885.923706,364.132568 1885.889404,362.039307 1885.855103,359.946075 
	C1890.477417,330.310394 1895.092407,300.673584 1899.725708,271.039612 
	C1901.813477,257.685181 1903.937378,244.336395 1906.148560,230.328186 
	C1915.562988,230.328186 1924.809326,230.328186 1935.113647,230.829376 
	C1936.535034,231.815308 1937.019653,232.067841 1937.625244,232.088135 
	C1933.619507,253.853500 1929.766235,275.648315 1925.575439,297.377991 
	C1917.501221,339.244476 1909.235962,381.074158 1900.909180,423.638672 
	C1889.621338,423.638672 1878.144653,423.638672 1865.494995,423.638672 
	C1857.809204,383.224274 1850.048584,342.415863 1842.194458,300.060669 
	C1841.967651,296.464386 1841.834229,294.414917 1841.785156,291.549988 
	C1841.611938,288.123627 1841.354248,285.512695 1841.096558,282.901733 
	C1840.163940,282.970367 1839.231201,283.039032 1838.298462,283.107666 
	C1838.298462,286.194092 1838.298462,289.280518 1838.200317,293.085205 
	C1838.154297,295.245239 1838.206543,296.687012 1838.258789,298.128784 
z"/>
<path fill="#020202" opacity="1.000000" stroke="none" 
	d="
M1609.657471,333.999817 
	C1609.657471,299.099640 1609.657471,265.199463 1609.657471,230.320328 
	C1623.385254,230.320328 1636.291138,230.009003 1649.174683,230.414307 
	C1660.413696,230.767883 1671.938843,230.555603 1682.788086,233.016190 
	C1706.236572,238.334259 1720.452759,254.379105 1727.743164,276.761200 
	C1734.104980,296.292725 1735.063843,316.445923 1733.961304,336.814636 
	C1732.979004,354.961761 1729.243286,372.347015 1720.083496,388.204834 
	C1710.069092,405.542572 1696.461426,418.564880 1676.194580,423.096558 
	C1674.252686,423.530792 1672.284302,424.153534 1670.326172,424.161285 
	C1650.420654,424.240173 1630.514648,424.209473 1609.657471,424.209473 
	C1609.657471,394.076050 1609.657471,364.537933 1609.657471,333.999817 
M1640.333862,328.999847 
	C1640.333862,348.894257 1640.333862,368.788666 1640.333862,389.665985 
	C1644.838257,389.665985 1648.427002,389.496735 1651.995850,389.693146 
	C1677.256470,391.083252 1690.054688,376.097717 1695.957886,358.240997 
	C1702.491333,338.477692 1702.571167,318.186432 1697.150757,298.337006 
	C1690.508179,274.012421 1672.224487,260.656525 1640.333862,267.268646 
	C1640.333862,287.111053 1640.333862,307.055420 1640.333862,328.999847 
z"/>
<path fill="#010101" opacity="1.000000" stroke="none" 
	d="
M2181.671631,405.902771 
	C2181.671631,412.181183 2181.671631,417.473236 2181.671631,423.936554 
	C2171.272949,424.607361 2161.250244,424.545776 2150.766846,423.883148 
	C2150.766846,359.560516 2150.766846,295.761688 2150.766846,231.083282 
	C2153.081299,230.842773 2155.584961,230.368332 2158.090820,230.357208 
	C2173.730957,230.287811 2189.374268,230.154007 2205.012207,230.363770 
	C2225.291992,230.635773 2242.717773,242.083771 2248.368164,261.945129 
	C2254.216309,282.500244 2254.850098,303.188629 2248.129395,323.623444 
	C2240.232910,347.633636 2222.279785,360.325928 2197.294434,360.340820 
	C2192.384766,360.343750 2187.475098,360.341248 2181.671631,360.341248 
	C2181.671631,375.801727 2181.671631,390.359070 2181.671631,405.902771 
M2204.362061,265.710968 
	C2197.065430,263.045990 2189.654541,263.296509 2182.290039,264.155640 
	C2182.290039,285.587006 2182.290039,306.327118 2182.290039,327.668335 
	C2186.832275,327.668335 2190.764404,327.769043 2194.689697,327.649658 
	C2206.949463,327.276794 2215.878418,320.738708 2217.901855,308.636871 
	C2219.284668,300.365021 2218.897705,291.629517 2218.111084,283.212585 
	C2217.401855,275.624634 2213.118164,269.611603 2204.362061,265.710968 
z"/>
<path fill="#040404" opacity="1.000000" stroke="none" 
	d="
M2451.883789,349.874146 
	C2443.573242,346.323822 2435.814697,343.387573 2428.320068,339.887146 
	C2407.499023,330.162231 2397.768799,313.595490 2397.517090,290.669434 
	C2397.345215,275.023712 2399.138916,260.144073 2408.487305,247.077850 
	C2420.293213,230.576736 2436.757324,225.248016 2456.344482,227.196243 
	C2468.513428,228.406601 2479.549316,232.187714 2489.847900,240.179733 
	C2485.913818,251.405731 2482.015869,262.528076 2478.339111,273.018921 
	C2470.037598,269.389862 2462.802002,265.171387 2454.996582,263.052124 
	C2441.963135,259.513428 2432.845947,265.169922 2428.966553,277.657104 
	C2426.908203,284.282990 2429.258789,292.400360 2435.390625,296.863220 
	C2439.352783,299.746857 2443.976318,301.795410 2448.471924,303.850555 
	C2452.683838,305.776123 2457.170898,307.090332 2461.443848,308.894348 
	C2479.011963,316.311584 2489.960938,329.290924 2492.885498,348.219055 
	C2495.981934,368.258423 2495.516357,387.910309 2484.304688,405.986481 
	C2477.642822,416.727448 2468.291504,423.628113 2456.134277,426.436981 
	C2432.640625,431.865204 2411.663330,426.023224 2392.068359,411.682434 
	C2396.413818,400.219604 2400.596924,389.185364 2404.956543,377.685486 
	C2409.853027,381.011536 2414.104980,384.119690 2418.569336,386.884888 
	C2426.746826,391.949585 2435.705078,393.170807 2445.217529,392.394135 
	C2453.738525,391.698425 2458.496094,386.547974 2461.298828,379.439606 
	C2465.438477,368.939453 2461.763916,357.587036 2451.883789,349.874146 
z"/>
<path fill="#040404" opacity="1.000000" stroke="none" 
	d="
M2332.695801,265.986206 
	C2317.872314,271.619049 2309.111328,282.482574 2304.614014,296.085968 
	C2296.756592,319.854584 2297.243164,343.838989 2307.478271,366.975250 
	C2314.080078,381.898529 2325.549805,391.083954 2342.480469,390.018585 
	C2349.512207,389.576080 2356.395996,386.185974 2363.250000,383.850616 
	C2365.652344,383.032013 2367.763184,381.358002 2370.697021,379.680115 
	C2374.688721,391.634277 2378.427734,402.831818 2382.104248,413.842529 
	C2344.992188,442.976440 2292.137451,428.620605 2275.463135,385.174774 
	C2266.497314,361.814453 2264.872070,337.614258 2267.307861,312.791077 
	C2268.989502,295.653717 2273.146484,279.530609 2281.558594,264.544281 
	C2291.345947,247.108353 2304.751709,233.841721 2324.653564,228.609482 
	C2341.849365,224.088699 2365.548340,227.169220 2380.349854,236.857651 
	C2378.909912,248.462021 2374.845459,259.827423 2371.299072,271.948090 
	C2358.814941,266.244476 2346.771973,261.698761 2332.695801,265.986206 
z"/>
<path fill="#404040" opacity="1.000000" stroke="none" 
	d="
M1986.460571,284.205688 
	C1983.067749,281.733368 1983.566650,279.414551 1986.651489,275.411072 
	C1987.271362,278.907959 1987.629272,280.927399 1987.842896,283.696899 
	C1987.698608,284.447021 1986.845825,284.390594 1986.460571,284.205688 
z"/>
<path fill="#B7B7B7" opacity="1.000000" stroke="none" 
	d="
M1838.750000,298.286804 
	C1838.206543,296.687012 1838.154297,295.245239 1838.766602,293.034851 
	C1840.187744,292.299286 1840.944214,292.332336 1841.700806,292.365417 
	C1841.834229,294.414917 1841.967651,296.464386 1841.993896,299.277588 
	C1841.005005,299.509155 1840.123169,298.976990 1838.750000,298.286804 
z"/>
<path fill="#C1C1C1" opacity="1.000000" stroke="none" 
	d="
M1885.237305,359.991028 
	C1885.889404,362.039307 1885.923706,364.132568 1885.359375,367.020142 
	C1883.889160,367.148224 1883.017700,366.481964 1882.146362,365.815674 
	C1882.077759,364.345337 1882.009277,362.875031 1882.042969,360.675537 
	C1882.969849,359.976227 1883.794678,360.006134 1885.237305,359.991028 
z"/>
<path fill="#404040" opacity="1.000000" stroke="none" 
	d="
M2084.728271,284.418579 
	C2084.385498,282.591766 2084.469238,280.737518 2084.574219,278.410461 
	C2088.315918,279.188629 2088.151611,281.088837 2086.534180,283.704132 
	C2085.925781,284.022461 2085.154785,284.391144 2084.728271,284.418579 
z"/>
<path fill="#404040" opacity="1.000000" stroke="none" 
	d="
M1937.812134,231.508911 
	C1937.019653,232.067841 1936.535034,231.815308 1936.035400,230.932129 
	C1936.598999,230.665695 1937.299072,230.797699 1937.812134,231.508911 
z"/>
<path fill="#404040" opacity="1.000000" stroke="none" 
	d="
M1741.528198,230.351044 
	C1742.032715,231.141296 1741.728149,231.592316 1740.783936,231.986252 
	C1740.567139,231.446289 1740.758789,230.807175 1741.528198,230.351044 
z"/>
<path fill="#404040" opacity="1.000000" stroke="none" 
	d="
M1841.785156,291.549988 
	C1840.944214,292.332336 1840.187744,292.299286 1838.864746,292.316589 
	C1838.298462,289.280518 1838.298462,286.194092 1838.298462,283.107666 
	C1839.231201,283.039032 1840.163940,282.970367 1841.096558,282.901733 
	C1841.354248,285.512695 1841.611938,288.123627 1841.785156,291.549988 
z"/>
<path fill="#404040" opacity="1.000000" stroke="none" 
	d="
M1882.064575,366.612366 
	C1883.017700,366.481964 1883.889160,367.148224 1885.310669,367.805023 
	C1885.644409,370.184540 1885.428101,372.573486 1885.211670,374.962433 
	C1884.459229,375.028168 1883.706665,375.093903 1882.954102,375.159607 
	C1882.630249,372.576080 1882.306519,369.992554 1882.064575,366.612366 
z"/>
<path fill="#FDFDFD" opacity="1.000000" stroke="none" 
	d="
M1640.333862,327.999817 
	C1640.333862,307.055420 1640.333862,287.111053 1640.333862,267.268646 
	C1672.224487,260.656525 1690.508179,274.012421 1697.150757,298.337006 
	C1702.571167,318.186432 1702.491333,338.477692 1695.957886,358.240997 
	C1690.054688,376.097717 1677.256470,391.083252 1651.995850,389.693146 
	C1648.427002,389.496735 1644.838257,389.665985 1640.333862,389.665985 
	C1640.333862,368.788666 1640.333862,348.894257 1640.333862,327.999817 
z"/>
<path fill="#FDFDFD" opacity="1.000000" stroke="none" 
	d="
M2205.137939,265.944336 
	C2213.118164,269.611603 2217.401855,275.624634 2218.111084,283.212585 
	C2218.897705,291.629517 2219.284668,300.365021 2217.901855,308.636871 
	C2215.878418,320.738708 2206.949463,327.276794 2194.689697,327.649658 
	C2190.764404,327.769043 2186.832275,327.668335 2182.290039,327.668335 
	C2182.290039,306.327118 2182.290039,285.587006 2182.290039,264.155640 
	C2189.654541,263.296509 2197.065430,263.045990 2205.137939,265.944336 
z"/>
</svg>